<svg width="195" height="209" viewBox="0 0 195 209" fill="none" xmlns="http://www.w3.org/2000/svg">
<path fill-rule="evenodd" clip-rule="evenodd" d="M108.196 36.8761C104.591 38.789 101.049 39.7132 99.3868 39.3359C95.2177 38.3898 94.8344 24.9625 98.0602 19.669C101.286 14.3756 117.869 12.0683 118.705 22.5564C118.995 26.1964 117.259 29.445 114.694 32.0957L119.293 50.9688H105.933L108.196 36.8761Z" fill="#B28B67"/>
<path fill-rule="evenodd" clip-rule="evenodd" d="M115.721 34.4566C117.397 27.889 122.174 23.412 121.445 20.4766C120.715 17.5411 117.556 16.8256 117.556 16.8256C117.556 16.8256 115.922 11.0059 107.016 11.8749C98.1096 12.7439 92.6738 16.0002 95.0213 23.1653C97.1791 23.1653 99.7841 22.4782 103.386 23.6553C105.101 24.2156 105.839 27.1301 105.839 27.1301H107.466C107.466 27.1301 109.836 23.6714 112.14 24.5881C114.443 25.5049 113.187 29.0417 113.187 29.0417L113.989 34.4566H115.721Z" fill="#191847"/>
<path fill-rule="evenodd" clip-rule="evenodd" d="M149.497 112.229C158.333 112.229 165.497 119.393 165.497 128.229V157C165.497 165.837 158.333 173 149.497 173H99.6667C90.8301 173 83.6667 165.837 83.6667 157V128.229C83.6667 119.393 90.8301 112.229 99.6667 112.229H149.497ZM145.91 125.952C148.119 125.952 149.91 127.743 149.91 129.952V155.278C149.91 157.487 148.119 159.278 145.91 159.278H103.253C101.044 159.278 99.2533 157.487 99.2533 155.278V129.952C99.2533 127.743 101.044 125.952 103.253 125.952H145.91Z" fill="#C5CFD6"/>
<path fill-rule="evenodd" clip-rule="evenodd" d="M28.4682 170.55C39.4433 158.75 46.8694 150.003 50.7464 144.307C57.3847 134.555 62.8178 125.877 64.5323 122.563C68.6209 114.658 55.1198 110.956 52.0641 114.643C47.4393 120.224 37.5624 137.784 22.4333 167.323L28.4682 170.55Z" fill="#B28B67"/>
<path fill-rule="evenodd" clip-rule="evenodd" d="M50.9583 167.119L71.3837 121.853C75.7523 113.601 54.6556 108.177 51.445 112.018C44.156 120.736 26.8316 155.129 24.66 157.726L50.9583 167.119Z" fill="#2F3676"/>
<path fill-rule="evenodd" clip-rule="evenodd" d="M105.358 158.041C101.379 152.931 86.9073 135.741 79.0246 128.628C76.7595 126.584 74.5493 124.623 72.4588 122.794C66.2452 117.361 53.8718 126.494 60.0739 131.443C75.5196 143.769 98.0559 160.408 99.9388 161.892C102.578 163.971 107.859 161.252 105.358 158.041Z" fill="#B28B67"/>
<path fill-rule="evenodd" clip-rule="evenodd" d="M102.206 156.598C102.941 155.791 104.283 155.611 105.201 156.338C105.96 156.939 106.756 157.639 107.103 158.167C107.856 159.315 108.865 161.738 108.865 161.738C107.353 162.507 81.6748 175.559 81.6748 175.559C81.6748 175.559 78.592 173.013 80.7142 171.606C82.8364 170.2 84.2168 169.234 84.2168 169.234L93.3383 158.17C93.6714 157.766 94.3145 157.697 94.7839 158.015L96.3421 159.071C96.3421 159.071 99.0255 158.865 100.347 158.193C100.939 157.893 101.627 157.234 102.206 156.598Z" fill="#E4E4E4"/>
<path fill-rule="evenodd" clip-rule="evenodd" d="M30.9055 168.512C31.9389 168.15 33.1176 168.582 33.4993 169.609C33.8211 170.474 34.1233 171.452 34.1233 172.072C34.1233 173.397 33.6216 175.94 33.6216 175.94C31.8749 175.94 2.22464 175.94 2.22464 175.94C2.22464 175.94 1.0008 172.378 3.63759 172.094C6.27439 171.81 8.01845 171.582 8.01845 171.582L22.2613 165.991C22.7524 165.799 23.3086 166.021 23.5323 166.498L24.2908 168.118C24.2908 168.118 26.7318 169.121 28.2579 169.121C28.976 169.121 30.0108 168.825 30.9055 168.512Z" fill="#E4E4E4"/>
<path fill-rule="evenodd" clip-rule="evenodd" d="M78.7334 124.114C78.7334 124.114 104.198 120.462 112.847 119.119C129.281 116.568 134.074 108.782 131.24 91.794L100.96 91.794C94.9493 93.3222 50.7301 110.696 50.7301 110.696C45.4262 113.014 46.4139 119.849 47.3834 122.101C47.4427 122.239 74.2076 162.567 74.2076 162.567L98.9782 148.675L78.6869 125.751C78.6869 125.751 77.8831 124.326 78.7334 124.114Z" fill="#5C63AB"/>
<path fill-rule="evenodd" clip-rule="evenodd" d="M58.7951 96.858L76.5518 85.3784L80.4771 93.9211L62.8933 100.341C57.9203 105.483 55.1395 107.627 54.5509 106.772C54.0546 106.051 54.4425 105.377 54.7999 104.755C55.0782 104.271 55.338 103.819 55.1468 103.403C54.71 102.452 51.3694 102.552 48.204 102.766C45.0385 102.981 45.961 101.741 46.7243 101.128C49.9555 99.4255 53.9791 98.0021 58.7951 96.858ZM151.915 117.085C150.284 114.172 144.729 85.7746 144.729 85.7746L133.096 85.8149C133.096 85.8149 143.87 116.436 144.729 118.309C145.844 120.743 143.949 124.279 142.664 126.677C142.466 127.048 142.281 127.392 142.125 127.7C143.908 128.402 144.764 127.553 145.667 126.658C146.687 125.648 147.766 124.578 150.306 125.618C151.288 126.02 152.216 126.496 153.124 126.96C156.258 128.564 159.137 130.037 163.053 127.909C163.674 127.572 164.355 126.302 162.711 125.31C158.615 122.837 152.713 118.51 151.915 117.085Z" fill="#B28B67"/>
<path fill-rule="evenodd" clip-rule="evenodd" d="M111.67 42.8001L106.856 42.0732C88.9965 55.6561 81.6608 81.7505 59.7692 95.5738L65.0384 101.324C103.016 97.1841 112.429 65.3552 111.67 42.8001Z" fill="#FF9C6F"/>
<path fill-rule="evenodd" clip-rule="evenodd" d="M132.653 96.0567C132.653 96.0567 103.702 96.0567 90.0619 96.0567C88.1157 96.0567 88.4825 93.5825 88.7638 92.3341C92.0108 77.9254 104.686 62.3935 104.686 41.883L116.971 40.187C127.133 54.5751 130.647 72.2898 132.653 96.0567Z" fill="#DDE3E9"/>
<path fill-rule="evenodd" clip-rule="evenodd" d="M137.442 106.348C139.357 110.396 141.234 113.928 143.002 116.64H152.137C153.119 88.6655 141.089 67.1399 131.021 54.1607C133.257 54.0201 135.275 53.1965 136.55 51.1704C141.04 44.0371 139.419 40.1097 134.62 38.8188C131.981 38.1089 129.499 38.5934 126.529 39.1735C124.098 39.6481 121.339 40.1866 117.899 40.187C117.898 40.187 117.897 40.187 117.896 40.187C117.563 40.187 117.259 40.2066 116.984 40.2442L112.907 40.449C112.907 40.449 96.3558 89.8352 103.778 106.348H137.442Z" fill="#FF9C6F"/>
<path fill-rule="evenodd" clip-rule="evenodd" d="M137.442 106.348C134.931 101.038 132.355 94.8395 129.877 88.438C128.954 95.4876 127.418 102.568 124.86 106.348H137.442Z" fill="black" fill-opacity="0.1"/>
</svg>
